<svg width="32" height="32" viewBox="0 0 32 32" fill="none" xmlns="http://www.w3.org/2000/svg">
<g clip-path="url(#clip0_159_6510)">
<path d="M21.2526 1.23177C21.2526 0.552083 21.9245 0 22.7552 0C23.5859 0 24.2578 0.552083 24.2578 1.23177V6.6276C24.2578 7.30729 23.5859 7.85938 22.7552 7.85938C21.9245 7.85938 21.2526 7.30729 21.2526 6.6276V1.23177ZM20.3021 21.0313C20.7786 21.0313 21.1667 21.4193 21.1667 21.8958C21.1667 22.3724 20.7786 22.7604 20.3021 22.7604L16.9297 22.75L16.9193 26.1172C16.9193 26.5938 16.5313 26.9818 16.0547 26.9818C15.5781 26.9818 15.1901 26.5938 15.1901 26.1172L15.2005 22.7474L11.8333 22.7344C11.3568 22.7344 10.9688 22.3464 10.9688 21.8698C10.9688 21.3932 11.3568 21.0052 11.8333 21.0052L15.2031 21.0156L15.2135 17.6484C15.2135 17.1719 15.6016 16.7839 16.0781 16.7839C16.5547 16.7839 16.9427 17.1719 16.9427 17.6484L16.9323 21.0208L20.3021 21.0313ZM7.71094 1.23177C7.71094 0.552083 8.38281 0 9.21354 0C10.0443 0 10.7161 0.552083 10.7161 1.23177V6.6276C10.7161 7.30729 10.0443 7.85938 9.21354 7.85938C8.38281 7.85938 7.71094 7.30729 7.71094 6.6276V1.23177ZM1.66667 11.8021H30.3333V5.59115C30.3333 5.38281 30.2474 5.19271 30.1094 5.05208C29.9714 4.91406 29.7813 4.82813 29.5703 4.82813H26.8229C26.362 4.82813 25.9896 4.45573 25.9896 3.99479C25.9896 3.53385 26.362 3.16146 26.8229 3.16146H29.5703C30.2396 3.16146 30.8464 3.4349 31.2865 3.875C31.7266 4.3151 32 4.92188 32 5.59115V12.638V29.5729C32 30.2422 31.7266 30.849 31.2865 31.2891C30.8464 31.7292 30.2396 32.0026 29.5703 32.0026H2.42969C1.76042 32.0026 1.15365 31.7292 0.713542 31.2891C0.273438 30.8464 0 30.2396 0 29.5703V12.638V5.59115C0 4.92188 0.273438 4.3151 0.713542 3.875C1.15365 3.4349 1.76042 3.16146 2.42969 3.16146H5.36458C5.82552 3.16146 6.19792 3.53385 6.19792 3.99479C6.19792 4.45573 5.82552 4.82813 5.36458 4.82813H2.42969C2.22135 4.82813 2.03125 4.91406 1.89063 5.05208C1.7526 5.1901 1.66667 5.38021 1.66667 5.59115V11.8021ZM30.3333 13.4714H1.66667V29.5703C1.66667 29.7786 1.7526 29.9688 1.89063 30.1094C2.02865 30.2474 2.21875 30.3333 2.42969 30.3333H29.5703C29.7786 30.3333 29.9688 30.2474 30.1094 30.1094C30.2474 29.9714 30.3333 29.7813 30.3333 29.5703V13.4714ZM13.1328 4.82813C12.6719 4.82813 12.2995 4.45573 12.2995 3.99479C12.2995 3.53385 12.6719 3.16146 13.1328 3.16146H18.7292C19.1901 3.16146 19.5625 3.53385 19.5625 3.99479C19.5625 4.45573 19.1901 4.82813 18.7292 4.82813H13.1328Z" fill="black"/>
</g>
<defs>
<clipPath id="clip0_159_6510">
<rect width="32" height="32" fill="white"/>
</clipPath>
</defs>
</svg>
