<svg width="32" height="32" viewBox="0 0 32 32" fill="none" xmlns="http://www.w3.org/2000/svg">
<g id="icon/add notes" clip-path="url(#clip0_153_5619)">
<path id="Vector" fill-rule="evenodd" clip-rule="evenodd" d="M29.2972 8.90365L31.6313 9.82031C31.7798 9.87877 31.8969 9.98894 31.957 10.1266C32.0171 10.2643 32.0152 10.4183 31.9518 10.5547L31.3846 11.7422L27.9443 10.3854L28.5116 9.19792C28.5752 9.06159 28.6952 8.95404 28.8452 8.89887C28.9951 8.8437 29.1628 8.84542 29.3113 8.90365H29.2972ZM2.51848 2.05208H4.84127V0.710938C4.85322 0.529485 4.94015 0.359064 5.0843 0.234464C5.22846 0.109865 5.41897 0.0404828 5.61695 0.0404828C5.81492 0.0404828 6.00543 0.109865 6.14959 0.234464C6.29374 0.359064 6.38067 0.529485 6.39263 0.710938V2.05208H9.79598V0.710938C9.79598 0.522385 9.87755 0.341555 10.0228 0.208229C10.168 0.0749021 10.3649 0 10.5702 0C10.7756 0 10.9725 0.0749021 11.1177 0.208229C11.2629 0.341555 11.3445 0.522385 11.3445 0.710938V2.05208H14.7478V0.710938C14.7478 0.522385 14.8294 0.341555 14.9746 0.208229C15.1198 0.0749021 15.3168 0 15.5221 0C15.7275 0 15.9244 0.0749021 16.0696 0.208229C16.2148 0.341555 16.2964 0.522385 16.2964 0.710938V2.05208H19.6997V0.710938C19.6997 0.522385 19.7813 0.341555 19.9265 0.208229C20.0717 0.0749022 20.2686 4.23752e-08 20.474 4.23752e-08C20.6793 4.23752e-08 20.8763 0.0749022 21.0215 0.208229C21.1667 0.341555 21.2482 0.522385 21.2482 0.710938V2.05208H23.8773C24.5446 2.05414 25.1839 2.29844 25.6557 2.73167C26.1275 3.16491 26.3936 3.7519 26.3958 4.36458V7.43229C26.1922 7.66159 26.0242 7.91576 25.8967 8.1875L25.3294 9.375C25.2936 9.47399 25.2642 9.57486 25.2415 9.67708C25.1805 9.77394 25.1256 9.87393 25.077 9.97656L24.9068 10.3411V4.36458C24.9054 4.11775 24.7979 3.88141 24.6078 3.70687C24.4177 3.53232 24.1603 3.43366 23.8915 3.43229H21.2709V4.77344C21.2709 4.96199 21.1894 5.14282 21.0442 5.27615C20.899 5.40947 20.702 5.48438 20.4967 5.48438C20.2913 5.48438 20.0944 5.40947 19.9492 5.27615C19.804 5.14282 19.7224 4.96199 19.7224 4.77344V3.43229H16.3191V4.77344C16.3191 4.96199 16.2375 5.14282 16.0923 5.27615C15.9471 5.40947 15.7501 5.48438 15.5448 5.48438C15.3395 5.48438 15.1425 5.40947 14.9973 5.27615C14.8521 5.14282 14.7705 4.96199 14.7705 4.77344V3.43229H11.3445V4.77344C11.3445 4.96199 11.2629 5.14282 11.1177 5.27615C10.9725 5.40947 10.7756 5.48438 10.5702 5.48438C10.3649 5.48438 10.168 5.40947 10.0228 5.27615C9.87755 5.14282 9.79598 4.96199 9.79598 4.77344V3.43229H6.39263V4.77344C6.38067 4.95489 6.29374 5.12531 6.14959 5.24991C6.00543 5.37451 5.81492 5.44389 5.61695 5.44389C5.41897 5.44389 5.22846 5.37451 5.0843 5.24991C4.94015 5.12531 4.85322 4.95489 4.84127 4.77344V3.43229H2.51848C2.2492 3.43229 1.99094 3.53052 1.80053 3.70535C1.61012 3.88019 1.50315 4.11732 1.50315 4.36458V28.3229C1.50389 28.5702 1.61101 28.8072 1.80118 28.9823C1.99135 29.1574 2.24917 29.2564 2.51848 29.2578H16.7785L16.9373 30.6354H2.51848C1.85126 30.6347 1.21154 30.3912 0.739474 29.9583C0.267412 29.5253 0.00150064 28.9382 0 28.3255L0 4.36719C0.00149509 3.75406 0.267224 3.16639 0.739126 2.7326C1.21103 2.2988 1.85074 2.05415 2.51848 2.05208ZM5.76868 24.5703C5.56935 24.5703 5.37818 24.4976 5.23724 24.3682C5.09629 24.2388 5.01711 24.0632 5.01711 23.8802C5.01711 23.6972 5.09629 23.5217 5.23724 23.3922C5.37818 23.2628 5.56935 23.1901 5.76868 23.1901H18.9226L18.2788 24.5703H5.76868ZM5.76868 20.0182C5.56935 20.0182 5.37818 19.9455 5.23724 19.8161C5.09629 19.6867 5.01711 19.5112 5.01711 19.3281C5.01711 19.1451 5.09629 18.9696 5.23724 18.8401C5.37818 18.7107 5.56935 18.638 5.76868 18.638H20.6413C20.7681 18.6385 20.8924 18.67 21.0015 18.7292L20.4002 20.0313L5.76868 20.0182ZM5.76868 15.4661C5.56935 15.4661 5.37818 15.3934 5.23724 15.264C5.09629 15.1346 5.01711 14.9591 5.01711 14.776C5.01711 14.593 5.09629 14.4175 5.23724 14.2881C5.37818 14.1586 5.56935 14.0859 5.76868 14.0859H20.6413C20.8406 14.0859 21.0318 14.1586 21.1728 14.2881C21.3137 14.4175 21.3929 14.593 21.3929 14.776C21.3929 14.9591 21.3137 15.1346 21.1728 15.264C21.0318 15.3934 20.8406 15.4661 20.6413 15.4661H5.76868ZM5.76868 10.9141C5.56935 10.9141 5.37818 10.8414 5.23724 10.7119C5.09629 10.5825 5.01711 10.407 5.01711 10.224C5.01711 10.0409 5.09629 9.8654 5.23724 9.73598C5.37818 9.60656 5.56935 9.53386 5.76868 9.53386H20.6413C20.8406 9.53386 21.0318 9.60656 21.1728 9.73598C21.3137 9.8654 21.3929 10.0409 21.3929 10.224C21.3929 10.407 21.3137 10.5825 21.1728 10.7119C21.0318 10.8414 20.8406 10.9141 20.6413 10.9141H5.76868ZM22.9726 29.8438L21.2171 31.1458C19.8415 32.1667 19.9805 32.4635 19.799 30.9167L19.5154 28.4844L27.6636 10.9844L31.118 12.3438L22.9726 29.8438ZM20.111 28.7214L22.3799 29.612L21.2199 30.4688C20.3152 31.1406 20.4059 31.3333 20.2896 30.3203L20.1025 28.7214H20.111Z" fill="black"/>
</g>
<defs>
<clipPath id="clip0_153_5619">
<rect width="32" height="32" fill="white"/>
</clipPath>
</defs>
</svg>
