<svg width="19" height="20" viewBox="0 0 19 20" fill="none" xmlns="http://www.w3.org/2000/svg">
<g clip-path="url(#clip0_777_2206)">
<path d="M17.4727 18.5156L17.138 18.1087L15.5092 19.8275C15.4174 19.9227 15.2939 19.9761 15.1652 19.9761C15.0365 19.9761 14.913 19.9227 14.8212 19.8275L13.1616 18.1283L11.5358 19.7754C11.4468 19.8717 11.3257 19.9277 11.1983 19.9316C11.0708 19.9356 10.9468 19.8871 10.8526 19.7965L9.12657 18.1152L7.53324 19.8568C7.44077 19.9537 7.31574 20.0081 7.18542 20.0081C7.0551 20.0081 6.93007 19.9537 6.8376 19.8568L5.19646 18.1152L3.49978 19.8145C3.40716 19.9078 3.28353 19.9591 3.15547 19.9572C3.02741 19.9554 2.90514 19.9006 2.81494 19.8047L1.21082 18.0892L0.886905 18.4847C0.825804 18.5732 0.739689 18.6389 0.64094 18.6725C0.542191 18.7061 0.435894 18.7058 0.337332 18.6716C0.238769 18.6374 0.153018 18.5711 0.0924068 18.4823C0.0317952 18.3934 -0.000555003 18.2866 7.20562e-06 18.1771V0.517578C0.000413975 0.38044 0.0522214 0.249041 0.144119 0.152069C0.236016 0.0550975 0.360539 0.000429231 0.4905 0L17.8413 0C17.9715 -6.75207e-07 18.0965 0.0544777 18.1887 0.151496C18.2809 0.248514 18.3329 0.380158 18.3333 0.517578V18.1771C18.3326 18.2513 18.317 18.3245 18.2875 18.3918C18.258 18.4591 18.2152 18.5191 18.1621 18.5677C18.0641 18.6572 17.9365 18.702 17.8072 18.6923C17.6779 18.6825 17.5576 18.619 17.4727 18.5156ZM4.06123 12.9395C3.97485 12.9395 3.92395 12.9232 3.86071 12.9134L3.51212 12.8581L3.29618 12.8206C3.22626 12.8076 3.15685 12.793 3.08795 12.7767C3.01392 12.7588 2.94605 12.7425 2.8859 12.7246L2.80415 12.7018V11.2793L3.18513 11.3118L3.46585 11.3298L3.75891 11.3444L4.05814 11.3542H4.34658H4.61496C4.69671 11.3542 4.7692 11.3542 4.8309 11.3542C4.88791 11.3483 4.94455 11.3391 5.00057 11.3265C5.04153 11.3171 5.08136 11.3029 5.11934 11.2842C5.1459 11.2709 5.17035 11.2533 5.19183 11.2321C5.20733 11.2153 5.21941 11.1954 5.22731 11.1735C5.23702 11.1431 5.24172 11.1112 5.24119 11.0791V10.9847C5.24381 10.9536 5.23881 10.9222 5.22665 10.8937C5.2145 10.8652 5.1956 10.8405 5.17178 10.8219C5.14359 10.8006 5.11235 10.7841 5.07923 10.7731C5.0422 10.7616 5.0037 10.7561 4.96509 10.7568H4.57177C4.30571 10.7614 4.04037 10.7263 3.78359 10.6527C3.56674 10.5904 3.36523 10.4793 3.19284 10.3271C3.0228 10.1709 2.89596 9.96896 2.82574 9.74284C2.7417 9.47024 2.70155 9.18471 2.70697 8.89811V8.63932C2.70251 8.36766 2.74701 8.09757 2.83808 7.84342C2.92273 7.61643 3.06074 7.41591 3.23911 7.26074C3.35923 7.15188 3.4919 7.05945 3.63397 6.98568C3.7702 6.91967 3.91455 6.87419 4.06277 6.85059V6.21908H5.30597V6.82454C5.4965 6.84257 5.68598 6.87136 5.87358 6.91081L5.97693 6.93034L6.2376 6.98242C6.31935 7.00033 6.39184 7.01823 6.47051 7.03776L6.55534 7.05892V8.4847L6.43503 8.47331L6.07564 8.44564L5.67153 8.42285L5.26741 8.4082C5.15173 8.4082 5.02833 8.4082 4.90031 8.4082C4.8309 8.4082 4.7692 8.4082 4.71059 8.4082C4.65578 8.41225 4.60121 8.41931 4.54709 8.42936C4.50671 8.43671 4.46734 8.44928 4.42987 8.4668C4.40182 8.48117 4.37627 8.50043 4.35429 8.52376C4.33519 8.54315 4.32089 8.56718 4.31264 8.59375C4.30126 8.63273 4.29605 8.67342 4.29722 8.71419V8.79395C4.29583 8.83725 4.30265 8.88041 4.31727 8.9209C4.32988 8.95197 4.34947 8.97935 4.37434 9.00065C4.40685 9.02651 4.44417 9.04481 4.48385 9.05436C4.54441 9.06991 4.60664 9.07702 4.66895 9.07552H5.15944C5.32794 9.07475 5.49603 9.09331 5.66073 9.13086C5.80688 9.16314 5.94773 9.21799 6.07873 9.29362C6.32033 9.43392 6.51686 9.64697 6.64326 9.9056C6.70737 10.0382 6.75555 10.1787 6.7867 10.3239C6.81806 10.4735 6.83358 10.6264 6.83298 10.7796V11.0384C6.83388 11.2672 6.8106 11.4954 6.76357 11.7188C6.72797 11.9027 6.66052 12.0782 6.56459 12.2363C6.47831 12.3766 6.36793 12.4986 6.23914 12.596C6.1073 12.6949 5.9601 12.7687 5.80417 12.8141L5.76253 12.8271C5.6118 12.8774 5.45685 12.9123 5.2998 12.9313V13.6149H4.06123V12.9395ZM13.0952 12.1061C13.218 12.1061 13.3357 12.1576 13.4224 12.2491C13.5092 12.3407 13.558 12.4649 13.558 12.5944C13.558 12.7239 13.5092 12.8481 13.4224 12.9397C13.3357 13.0312 13.218 13.0827 13.0952 13.0827H8.76873C8.646 13.0827 8.52831 13.0312 8.44153 12.9397C8.35475 12.8481 8.306 12.7239 8.306 12.5944C8.306 12.4649 8.35475 12.3407 8.44153 12.2491C8.52831 12.1576 8.646 12.1061 8.76873 12.1061H13.0952ZM15.5107 9.4401C15.6334 9.4401 15.7511 9.49155 15.8379 9.58312C15.9247 9.67469 15.9734 9.79889 15.9734 9.92839C15.9734 10.0579 15.9247 10.1821 15.8379 10.2737C15.7511 10.3652 15.6334 10.4167 15.5107 10.4167H8.76873C8.646 10.4167 8.52831 10.3652 8.44153 10.2737C8.35475 10.1821 8.306 10.0579 8.306 9.92839C8.306 9.79889 8.35475 9.67469 8.44153 9.58312C8.52831 9.49155 8.646 9.4401 8.76873 9.4401H15.5107ZM15.5261 6.79362C15.6488 6.79362 15.7665 6.84506 15.8533 6.93663C15.9401 7.0282 15.9888 7.1524 15.9888 7.2819C15.9888 7.4114 15.9401 7.5356 15.8533 7.62717C15.7665 7.71874 15.6488 7.77018 15.5261 7.77018H8.76873C8.646 7.77018 8.52831 7.71874 8.44153 7.62717C8.35475 7.5356 8.306 7.4114 8.306 7.2819C8.306 7.1524 8.35475 7.0282 8.44153 6.93663C8.52831 6.84506 8.646 6.79362 8.76873 6.79362H15.5261ZM14.8073 2.55208C14.9961 2.55204 15.1791 2.62107 15.325 2.7474C15.471 2.87374 15.5709 3.04957 15.6078 3.24494C15.6446 3.4403 15.6162 3.64311 15.5272 3.81881C15.4383 3.99451 15.2943 4.13222 15.1199 4.20849C14.9455 4.28475 14.7515 4.29485 14.5708 4.23706C14.3902 4.17927 14.2341 4.05717 14.1292 3.89156C14.0243 3.72595 13.977 3.52708 13.9955 3.32884C14.014 3.13059 14.097 2.94524 14.2305 2.80436C14.306 2.72404 14.3959 2.66037 14.4949 2.61706C14.5939 2.57375 14.7001 2.55166 14.8073 2.55208ZM11.0484 2.55208C11.2364 2.55235 11.4184 2.62134 11.5636 2.74731C11.7088 2.87327 11.8081 3.04844 11.8447 3.24298C11.8812 3.43752 11.8528 3.63942 11.7641 3.81432C11.6755 3.98921 11.5322 4.12629 11.3586 4.20222C11.1849 4.27816 10.9917 4.28825 10.8118 4.23079C10.6319 4.17332 10.4765 4.05185 10.3719 3.88705C10.2673 3.72225 10.2201 3.52431 10.2383 3.32691C10.2565 3.1295 10.3389 2.94485 10.4716 2.80436C10.5472 2.72426 10.6371 2.66073 10.7361 2.61744C10.8351 2.57414 10.9413 2.55193 11.0484 2.55208ZM7.29108 2.55208C7.47985 2.55204 7.6628 2.62107 7.80876 2.7474C7.95471 2.87374 8.05463 3.04957 8.0915 3.24494C8.12836 3.4403 8.09989 3.64311 8.01094 3.81881C7.92198 3.99451 7.77805 4.13222 7.60366 4.20849C7.42926 4.28475 7.23521 4.29485 7.05455 4.23706C6.87389 4.17927 6.71781 4.05717 6.61291 3.89156C6.508 3.72595 6.46076 3.52708 6.47923 3.32884C6.4977 3.13059 6.58075 2.94524 6.71421 2.80436C6.7897 2.72404 6.87958 2.66037 6.97862 2.61706C7.07766 2.57375 7.18387 2.55166 7.29108 2.55208ZM3.53217 2.55208C3.72013 2.55235 3.90218 2.62134 4.04736 2.74731C4.19253 2.87327 4.29185 3.04844 4.32841 3.24298C4.36497 3.43752 4.33652 3.63942 4.24788 3.81432C4.15925 3.98921 4.01592 4.12629 3.84229 4.20222C3.66866 4.27816 3.47546 4.28825 3.29557 4.23079C3.11568 4.17332 2.96022 4.05185 2.85564 3.88705C2.75107 3.72225 2.70385 3.52431 2.72203 3.32691C2.7402 3.1295 2.82263 2.94485 2.9553 2.80436C3.03095 2.72426 3.12086 2.66073 3.21987 2.61744C3.31887 2.57414 3.42501 2.55193 3.53217 2.55208ZM17.3539 16.875V1.03678H0.982536V16.862C1.06806 16.8203 1.16314 16.8056 1.25641 16.8194C1.34968 16.8333 1.4372 16.8752 1.5085 16.9401L3.17741 18.7174L4.87409 17.0182C4.96689 16.9253 5.09045 16.8743 5.21839 16.8761C5.34633 16.8779 5.46854 16.9324 5.55893 17.028L7.18774 18.7451L8.76256 17.0329C8.85186 16.9368 8.973 16.8811 9.10047 16.8775C9.22793 16.8738 9.35176 16.9225 9.44585 17.0133L11.1842 18.7061L12.8299 17.0378C12.9216 16.9435 13.0444 16.8908 13.1724 16.8908C13.3003 16.8908 13.4232 16.9435 13.5148 17.0378L15.1621 18.7288L16.8125 16.9857C16.8814 16.913 16.9692 16.8635 17.0647 16.8435C17.1603 16.8235 17.2593 16.8339 17.3493 16.8734L17.3539 16.875Z" fill="black"/>
</g>
<defs>
<clipPath id="clip0_777_2206">
<rect width="18.3333" height="20" fill="white"/>
</clipPath>
</defs>
</svg>
