<svg width="32" height="32" viewBox="0 0 32 32" fill="none" xmlns="http://www.w3.org/2000/svg">
<g clip-path="url(#clip0_98_422)">
<path d="M18.39 1.08101C18.39 0.485854 18.9713 0 19.6938 0C20.4169 0 20.9981 0.483326 20.9981 1.08101V5.81003C20.9981 6.40518 20.4169 6.89103 19.6938 6.89103C18.9713 6.89103 18.39 6.40771 18.39 5.81003V1.08101ZM21.5331 22.4276C21.536 22.3384 21.5656 22.2521 21.6181 22.1802C21.6706 22.1084 21.7434 22.0543 21.8269 22.0252C21.8069 21.677 21.765 21.1539 21.8581 20.819C21.9645 20.4681 22.1968 20.1699 22.5094 19.9832C22.62 19.9143 22.74 19.8562 22.8625 19.812C23.0881 19.7305 22.9762 19.3489 23.2219 19.3438C23.795 19.3286 24.7369 19.8593 25.1044 20.2618C25.3394 20.5234 25.4725 20.8614 25.48 21.2146L25.4569 22.0643C25.5669 22.0871 25.6575 22.166 25.6975 22.2722C25.82 22.7719 24.615 23.9521 24.615 24.0791C24.6181 24.1227 24.6344 24.1638 24.6631 24.1973C25.4987 25.3592 27.9569 24.7097 27.9569 27.0208H19.2706C19.2706 24.709 21.7288 25.3598 22.565 24.1985C22.6056 24.1373 22.625 24.1038 22.6244 24.0772C22.6244 23.9641 21.5331 22.8358 21.5331 22.4276ZM23.6138 15.0438C25.925 15.0438 28.0238 15.994 29.5413 17.5299C31.06 19.0614 32 21.1811 32 23.5225C32 25.8614 31.0613 27.9837 29.5438 29.517L29.5012 29.5575C27.9869 31.0662 25.9075 32 23.6138 32C21.3019 32 19.2038 31.0498 17.6863 29.517C16.1675 27.9805 15.2275 25.8595 15.2275 23.5225C15.2275 21.1811 16.1675 19.0614 17.6844 17.528L17.7275 17.4876C19.2425 15.9776 21.3231 15.0438 23.6138 15.0438ZM28.535 18.5446C27.2794 17.274 25.5375 16.4862 23.6138 16.4862C21.7075 16.4862 19.98 17.2601 18.7269 18.5098L18.6925 18.5471C17.4338 19.8195 16.6537 21.5797 16.6537 23.5225C16.6537 25.4659 17.4338 27.228 18.6906 28.4992C19.9481 29.7697 21.6906 30.5582 23.6138 30.5582C25.5194 30.5582 27.2463 29.7836 28.5019 28.5346L28.5356 28.4979C29.795 27.2249 30.5737 25.4653 30.5737 23.5225C30.5737 21.5797 29.7944 19.8195 28.535 18.5446ZM3.55063 15.3072C3.47688 15.3072 3.41062 14.9787 3.41062 14.5769C3.41062 14.1732 3.46938 13.8478 3.55063 13.8478H7.10938C7.18375 13.8478 7.25 14.1763 7.25 14.5769C7.25 14.98 7.19125 15.3072 7.10938 15.3072H3.55063ZM9.22437 15.3072C9.15 15.3072 9.08438 14.9787 9.08438 14.5769C9.08438 14.1732 9.1425 13.8478 9.22437 13.8478H12.7831C12.8569 13.8478 12.9231 14.1763 12.9231 14.5769C12.9231 14.98 12.8644 15.3072 12.7831 15.3072H9.22437ZM14.8975 15.3072C14.8238 15.3072 14.7575 14.9787 14.7575 14.5769C14.7575 14.1732 14.8156 13.8478 14.8975 13.8478H18.4562C18.53 13.8478 18.5963 14.1732 18.5963 14.5737C18.2401 14.7981 17.8971 15.043 17.5688 15.3072H14.8975ZM3.55875 19.4923C3.485 19.4923 3.41875 19.1637 3.41875 18.7613C3.41875 18.3582 3.47687 18.0297 3.55875 18.0297H7.1175C7.19125 18.0297 7.2575 18.3582 7.2575 18.7613C7.2575 19.1637 7.19937 19.4923 7.1175 19.4923H3.55875ZM9.23188 19.4923C9.15813 19.4923 9.09188 19.1637 9.09188 18.7613C9.09188 18.3582 9.15 18.0297 9.23188 18.0297H12.7906C12.8644 18.0297 12.9306 18.3582 12.9306 18.7613C12.9306 19.1637 12.8725 19.4923 12.7906 19.4923H9.23188ZM3.56625 23.6798C3.4925 23.6798 3.42625 23.3513 3.42625 22.9482C3.42625 22.5458 3.485 22.2172 3.56625 22.2172H7.125C7.19938 22.2172 7.26562 22.5458 7.26562 22.9482C7.26562 23.3513 7.20687 23.6798 7.125 23.6798H3.56625ZM9.24 23.6798C9.16562 23.6798 9.09937 23.3513 9.09937 22.9482C9.09937 22.5458 9.15812 22.2172 9.24 22.2172H12.7987C12.8725 22.2172 12.9388 22.5458 12.9388 22.9482C12.9388 23.3513 12.88 23.6798 12.7987 23.6798H9.24ZM6.67688 1.08101C6.67688 0.485854 7.2575 0 7.98063 0C8.70375 0 9.28438 0.483326 9.28438 1.08101V5.81003C9.28438 6.40518 8.70187 6.89103 7.98063 6.89103C7.2575 6.89103 6.67688 6.40771 6.67688 5.81003V1.08101ZM1.43625 10.3388H26.2731V4.89392C26.2731 4.70817 26.1994 4.54453 26.0806 4.42449C25.9619 4.30445 25.7925 4.2299 25.6156 4.2299H23.2344C22.835 4.2299 22.5112 3.90136 22.5112 3.4989C22.5112 3.09582 22.835 2.76728 23.2344 2.76728H25.6156C26.1994 2.76728 26.7219 3.00547 27.1044 3.39213C27.4875 3.77942 27.7225 4.30761 27.7225 4.89708V13.5407C27.2475 13.3752 26.7587 13.2419 26.2569 13.1433V11.7925H26.2731H1.43625V25.8924C1.43625 26.0781 1.51063 26.2411 1.62875 26.3612C1.7475 26.4812 1.91688 26.5564 2.09313 26.5564H13.8975C14.0312 27.0625 14.2006 27.5566 14.4044 28.0317H2.10687C1.52562 28.0317 1.00063 27.7947 0.618125 27.4068C0.234375 27.0233 0 26.4951 0 25.905V4.8996C0 4.31266 0.234375 3.78132 0.618125 3.39466C1.00063 3.00736 1.52312 2.77044 2.10687 2.77044H4.64875C5.0475 2.77044 5.3725 3.09898 5.3725 3.5008C5.3725 3.90452 5.0475 4.23306 4.64875 4.23306H2.10687C1.92188 4.23306 1.76063 4.30761 1.64188 4.42765C1.52313 4.54769 1.44875 4.71765 1.44875 4.89708V10.3407H1.43625V10.3388ZM11.37 4.2299C10.9719 4.2299 10.6469 3.90136 10.6469 3.4989C10.6469 3.09582 10.9719 2.76728 11.37 2.76728H16.2169C16.6163 2.76728 16.9412 3.09582 16.9412 3.4989C16.9412 3.90136 16.6163 4.2299 16.2169 4.2299H11.37Z" fill="#0D139D"/>
</g>
<defs>
<clipPath id="clip0_98_422">
<rect width="32" height="32" fill="white"/>
</clipPath>
</defs>
</svg>
