<svg width="32" height="32" viewBox="0 0 32 32" fill="none" xmlns="http://www.w3.org/2000/svg">
<g clip-path="url(#clip0_98_667)">
<path d="M18.1406 1.07946C18.1406 0.485091 18.7135 0 19.4271 0C20.1406 0 20.7135 0.482426 20.7135 1.07946V5.80243C20.7135 6.3968 20.1406 6.88189 19.4271 6.88189C18.7135 6.88189 18.1406 6.39947 18.1406 5.80243V1.07946ZM23.7943 15.2004C24.9036 15.2004 25.9635 15.427 26.9323 15.8374C27.9401 16.2639 28.8438 16.8876 29.599 17.6605C30.3542 18.4335 30.9635 19.361 31.3802 20.3871C31.7813 21.3786 32.0026 22.4634 32.0026 23.5989C32.0026 24.7343 31.7813 25.8191 31.3802 26.8106C30.9635 27.8421 30.3542 28.767 29.599 29.5399C28.8438 30.3128 27.9375 30.9365 26.9349 31.363C25.9661 31.7734 24.9063 32 23.7969 32C22.6875 32 21.6276 31.7734 20.6589 31.363C19.651 30.9365 18.7474 30.3128 17.9922 29.5399C17.237 28.767 16.6276 27.8394 16.2109 26.8106C15.8099 25.8191 15.5885 24.7343 15.5885 23.5989C15.5885 22.4634 15.8099 21.3786 16.2109 20.3871C16.6276 19.3557 17.237 18.4308 17.9922 17.6578C18.7474 16.8849 19.6536 16.2612 20.6563 15.8347C21.625 15.427 22.6823 15.2004 23.7943 15.2004ZM23.1797 20.0886C23.1797 19.8861 23.2604 19.7021 23.3906 19.5689C23.5208 19.4356 23.7005 19.353 23.901 19.353C24.1016 19.353 24.2813 19.4356 24.4115 19.5689C24.5417 19.7021 24.6224 19.8861 24.6224 20.0913V24.02L27.4922 25.7631L27.5156 25.7791C27.6745 25.8831 27.7786 26.0403 27.8203 26.2136C27.8646 26.3948 27.8438 26.592 27.7474 26.7626L27.7422 26.7706C27.737 26.7813 27.7318 26.7893 27.724 26.7973C27.6224 26.9572 27.4688 27.0638 27.3021 27.1064C27.125 27.1518 26.9323 27.1304 26.7656 27.0318L23.5573 25.0888C23.4453 25.0275 23.3516 24.9342 23.2839 24.8249C23.2161 24.713 23.1771 24.5824 23.1771 24.4438L23.1797 20.0886ZM28.5807 18.7C27.9557 18.0603 27.2109 17.5459 26.3854 17.1967C25.5885 16.8582 24.7135 16.6743 23.7943 16.6743C22.875 16.6743 22 16.8609 21.2031 17.1967C20.3776 17.5459 19.6328 18.0603 19.0078 18.7C18.3828 19.3397 17.8802 20.1019 17.5391 20.9469C17.2083 21.7625 17.0286 22.658 17.0286 23.5989C17.0286 24.5397 17.2109 25.4353 17.5391 26.2509C17.8802 27.0958 18.3828 27.8581 19.0078 28.4978C19.6328 29.1374 20.3776 29.6518 21.2031 30.001C22 30.3395 22.875 30.5234 23.7943 30.5234C24.7135 30.5234 25.5885 30.3368 26.3854 30.001C27.2109 29.6518 27.9557 29.1374 28.5807 28.4978C29.8073 27.2424 30.5625 25.5126 30.5625 23.5989C30.5625 22.658 30.3802 21.7625 30.0521 20.9469C29.7083 20.1019 29.2057 19.3397 28.5807 18.7ZM3.5026 15.2884C3.42969 15.2884 3.36458 14.9605 3.36458 14.5581C3.36458 14.1556 3.42188 13.8304 3.5026 13.8304H7.01302C7.08594 13.8304 7.15104 14.1583 7.15104 14.5581C7.15104 14.9605 7.09375 15.2884 7.01302 15.2884H3.5026ZM9.09896 15.2884C9.02604 15.2884 8.96094 14.9605 8.96094 14.5581C8.96094 14.1556 9.01823 13.8304 9.09896 13.8304H12.6094C12.6823 13.8304 12.7474 14.1583 12.7474 14.5581C12.7474 14.9605 12.6901 15.2884 12.6094 15.2884H9.09896ZM14.6953 15.2884C14.6224 15.2884 14.5573 14.9605 14.5573 14.5581C14.5573 14.1556 14.6146 13.8304 14.6953 13.8304H18.2057C18.2786 13.8304 18.3438 14.1556 18.3438 14.5554C17.9922 14.7793 17.6536 15.0245 17.3307 15.2884H14.6953ZM3.51042 19.4676C3.4375 19.4676 3.3724 19.1398 3.3724 18.7373C3.3724 18.3348 3.42969 18.007 3.51042 18.007H7.02083C7.09375 18.007 7.15885 18.3348 7.15885 18.7373C7.15885 19.1398 7.10156 19.4676 7.02083 19.4676H3.51042ZM9.10677 19.4676C9.03386 19.4676 8.96875 19.1398 8.96875 18.7373C8.96875 18.3348 9.02604 18.007 9.10677 18.007H12.6172C12.6901 18.007 12.7552 18.3348 12.7552 18.7373C12.7552 19.1398 12.6979 19.4676 12.6172 19.4676H9.10677ZM3.51823 23.6495C3.44531 23.6495 3.38021 23.3217 3.38021 22.9192C3.38021 22.5167 3.4375 22.1889 3.51823 22.1889H7.02865C7.10156 22.1889 7.16667 22.5167 7.16667 22.9192C7.16667 23.3217 7.10938 23.6495 7.02865 23.6495H3.51823ZM9.11458 23.6495C9.04167 23.6495 8.97656 23.3217 8.97656 22.9192C8.97656 22.5167 9.03385 22.1889 9.11458 22.1889H12.625C12.6979 22.1889 12.763 22.5167 12.763 22.9192C12.763 23.3217 12.7057 23.6495 12.625 23.6495H9.11458ZM6.58594 1.07946C6.58594 0.485091 7.15885 0 7.8724 0C8.58594 0 9.15885 0.482426 9.15885 1.07946V5.80243C9.15885 6.3968 8.58333 6.88189 7.8724 6.88189C7.15885 6.88189 6.58594 6.39947 6.58594 5.80243V1.07946ZM1.41667 10.3255H25.9167V4.88822C25.9167 4.70165 25.8438 4.53906 25.7266 4.41912C25.6094 4.29918 25.4427 4.22455 25.2682 4.22455H22.9193C22.526 4.22455 22.2057 3.89672 22.2057 3.49425C22.2057 3.09179 22.526 2.76395 22.9193 2.76395H25.2682C25.8438 2.76395 26.3594 3.00117 26.737 3.38764C27.1146 3.77411 27.3464 4.30185 27.3464 4.89089V13.5239C26.8776 13.3587 26.3958 13.2254 25.901 13.1268V11.7781H25.9167H1.41667V25.8591C1.41667 26.0456 1.48958 26.2082 1.60677 26.3282C1.72396 26.4481 1.89063 26.5227 2.0651 26.5227H13.7083C13.8411 27.0292 14.0078 27.5222 14.2083 27.9967H2.07813C1.50521 27.9967 0.986979 27.7595 0.609375 27.373C0.231771 26.9892 0 26.4614 0 25.8724V4.89355C0 4.30718 0.231771 3.77678 0.609375 3.39031C0.986979 3.00383 1.5026 2.76662 2.07813 2.76662H4.58594C4.97917 2.76662 5.29948 3.09445 5.29948 3.49692C5.29948 3.89938 4.97917 4.22722 4.58594 4.22722H2.07813C1.89583 4.22722 1.73698 4.30185 1.61979 4.42179C1.5026 4.54173 1.42969 4.71231 1.42969 4.89089V10.3282H1.41667V10.3255ZM11.2161 4.22455C10.8229 4.22455 10.5026 3.89672 10.5026 3.49425C10.5026 3.09179 10.8229 2.76395 11.2161 2.76395H15.9974C16.3906 2.76395 16.7109 3.09179 16.7109 3.49425C16.7109 3.89672 16.3906 4.22455 15.9974 4.22455H11.2161Z" fill="#0D139D"/>
</g>
<defs>
<clipPath id="clip0_98_667">
<rect width="32" height="32" fill="white"/>
</clipPath>
</defs>
</svg>
