<svg width="23" height="25" viewBox="0 0 23 25" fill="none" xmlns="http://www.w3.org/2000/svg">
<g id="icon/close">
<g id="Vector">
<mask id="path-1-inside-1_89_684" fill="white">
<path d="M17.5961 6.45553L16.2903 5.04553L11.1132 10.6355L5.9362 5.04553L4.63037 6.45553L9.80739 12.0455L4.63037 17.6355L5.9362 19.0455L11.1132 13.4555L16.2903 19.0455L17.5961 17.6355L12.4191 12.0455L17.5961 6.45553Z"/>
</mask>
<path d="M17.5961 6.45553L16.2903 5.04553L11.1132 10.6355L5.9362 5.04553L4.63037 6.45553L9.80739 12.0455L4.63037 17.6355L5.9362 19.0455L11.1132 13.4555L16.2903 19.0455L17.5961 17.6355L12.4191 12.0455L17.5961 6.45553Z" fill="white"/>
<path d="M17.5961 6.45553L19.0635 7.8145L20.322 6.45553L19.0635 5.09656L17.5961 6.45553ZM16.2903 5.04553L17.7576 3.68656L16.2903 2.10213L14.8229 3.68656L16.2903 5.04553ZM11.1132 10.6355L9.64585 11.9945L11.1132 13.5789L12.5806 11.9945L11.1132 10.6355ZM5.9362 5.04553L7.40358 3.68656L5.9362 2.10213L4.46883 3.68656L5.9362 5.04553ZM4.63037 6.45553L3.16299 5.09656L1.90442 6.45553L3.16299 7.8145L4.63037 6.45553ZM9.80739 12.0455L11.2748 13.4045L12.5333 12.0455L11.2748 10.6866L9.80739 12.0455ZM4.63037 17.6355L3.16299 16.2766L1.90442 17.6355L3.16299 18.9945L4.63037 17.6355ZM5.9362 19.0455L4.46883 20.4045L5.9362 21.9889L7.40358 20.4045L5.9362 19.0455ZM11.1132 13.4555L12.5806 12.0966L11.1132 10.5121L9.64585 12.0966L11.1132 13.4555ZM16.2903 19.0455L14.8229 20.4045L16.2903 21.9889L17.7576 20.4045L16.2903 19.0455ZM17.5961 17.6355L19.0635 18.9945L20.322 17.6355L19.0635 16.2766L17.5961 17.6355ZM12.4191 12.0455L10.9517 10.6866L9.69311 12.0455L10.9517 13.4045L12.4191 12.0455ZM19.0635 5.09656L17.7576 3.68656L14.8229 6.4045L16.1287 7.8145L19.0635 5.09656ZM14.8229 3.68656L9.64585 9.27656L12.5806 11.9945L17.7576 6.4045L14.8229 3.68656ZM12.5806 9.27656L7.40358 3.68656L4.46883 6.4045L9.64585 11.9945L12.5806 9.27656ZM4.46883 3.68656L3.16299 5.09656L6.09775 7.8145L7.40358 6.4045L4.46883 3.68656ZM3.16299 7.8145L8.34002 13.4045L11.2748 10.6866L6.09775 5.09656L3.16299 7.8145ZM8.34002 10.6866L3.16299 16.2766L6.09775 18.9945L11.2748 13.4045L8.34002 10.6866ZM3.16299 18.9945L4.46883 20.4045L7.40358 17.6866L6.09775 16.2766L3.16299 18.9945ZM7.40358 20.4045L12.5806 14.8145L9.64585 12.0966L4.46883 17.6866L7.40358 20.4045ZM9.64585 14.8145L14.8229 20.4045L17.7576 17.6866L12.5806 12.0966L9.64585 14.8145ZM17.7576 20.4045L19.0635 18.9945L16.1287 16.2766L14.8229 17.6866L17.7576 20.4045ZM19.0635 16.2766L13.8864 10.6866L10.9517 13.4045L16.1287 18.9945L19.0635 16.2766ZM13.8864 13.4045L19.0635 7.8145L16.1287 5.09656L10.9517 10.6866L13.8864 13.4045Z" fill="white" mask="url(#path-1-inside-1_89_684)"/>
</g>
</g>
</svg>
