<svg width="24" height="24" viewBox="0 0 24 24" fill="none" xmlns="http://www.w3.org/2000/svg">
<g id="icon/edit table row">
<path id="Vector" d="M17.9057 2.40196C17.6714 2.18715 17.4175 2.06998 17.1246 2.08951C16.8317 2.08951 16.5778 2.20668 16.363 2.42149L14.6445 4.19854L19.4484 8.84622L21.1864 7.03011C21.4012 6.8153 21.4794 6.54191 21.4794 6.24899C21.4794 5.95607 21.3622 5.68267 21.1474 5.48739L17.9057 2.40196Z" fill="#0D139D"/>
<path id="Vector_2" d="M8.92289 19.8405C8.298 20.0553 7.65357 20.2506 7.00914 20.4459C6.38424 20.6607 5.73982 20.8755 5.09539 21.0708C3.59173 21.559 2.77155 21.8324 2.57627 21.891C2.40052 21.9496 2.51769 21.2466 2.88872 19.782L4.07993 15.1929L4.17757 15.0952L8.92289 19.8405Z" fill="#0D139D"/>
<path id="Vector_3" d="M5.9375 13.2791L13.3582 5.56551L18.1621 10.1937L10.6633 18.0049L5.9375 13.2791Z" fill="#0D139D"/>
</g>
</svg>
