<svg width="24" height="24" viewBox="0 0 24 24" fill="none" xmlns="http://www.w3.org/2000/svg">
<g id="icon/expand">
<rect id="Rectangle 493" x="5.25" y="11.25" width="13.5" height="2.25" fill="black"/>
<path id="Rectangle 492 (Stroke)" fill-rule="evenodd" clip-rule="evenodd" d="M19.5 0.75H4.5C2.42893 0.75 0.75 2.42893 0.75 4.5V19.5C0.75 21.5711 2.42893 23.25 4.5 23.25H19.5C21.5711 23.25 23.25 21.5711 23.25 19.5V4.5C23.25 2.42893 21.5711 0.75 19.5 0.75ZM4.5 0C2.01472 0 0 2.01472 0 4.5V19.5C0 21.9853 2.01472 24 4.5 24H19.5C21.9853 24 24 21.9853 24 19.5V4.5C24 2.01472 21.9853 0 19.5 0H4.5Z" fill="black"/>
</g>
</svg>
