<svg width="32" height="32" viewBox="0 0 32 32" fill="none" xmlns="http://www.w3.org/2000/svg">
<g clip-path="url(#clip0_98_565)">
<path d="M2.59122 0H29.3776C30.0914 0 30.7387 0.334056 31.2078 0.872972C31.6764 1.41219 31.9685 2.15536 31.9685 2.976V28.4567C31.9685 29.2761 31.6764 30.0205 31.2078 30.5594C30.7387 31.0992 30.0914 31.4321 29.3776 31.4321H2.59122C1.87707 31.4321 1.22979 31.0992 0.760976 30.5594C0.292163 30.0205 0 29.2764 0 28.4567V2.976C0 2.15507 0.292163 1.41219 0.760976 0.872972C1.22979 0.334056 1.87707 0 2.59122 0ZM20.9766 12.4806H22.8927V5.32336C22.8927 5.01503 23.001 4.7372 23.1758 4.53563C23.3522 4.33406 23.5934 4.21024 23.8608 4.21024C24.1285 4.21024 24.371 4.33406 24.5453 4.53563C24.7206 4.7372 24.8294 5.01503 24.8294 5.32336V12.4806H26.7439C27.3176 12.4806 27.7872 13.0201 27.7872 13.6796C27.7872 14.3393 27.3176 14.8785 26.7439 14.8785H24.8294V25.7908C24.8294 26.0979 24.7206 26.3767 24.5453 26.577C24.371 26.778 24.1285 26.9036 23.8608 26.9036C23.5936 26.9036 23.3522 26.778 23.1758 26.577C23.001 26.3767 22.8927 26.0979 22.8927 25.7908V14.8785H20.9766C20.403 14.8785 19.9339 14.339 19.9339 13.6796C19.9339 13.0201 20.403 12.4806 20.9766 12.4806ZM13.0511 17.6317H14.9664V5.32336C14.9664 5.01503 15.0749 4.7372 15.2502 4.53563C15.4248 4.33406 15.6673 4.21024 15.9352 4.21024C16.2011 4.21024 16.4441 4.33406 16.6189 4.53563C16.7943 4.7372 16.902 5.01503 16.902 5.32336V17.6314H18.8181C19.3917 17.6314 19.8613 18.1709 19.8613 18.8304C19.8613 19.4898 19.3917 20.0296 18.8181 20.0296H16.902V25.7908C16.902 26.0979 16.7943 26.3767 16.6189 26.577C16.4441 26.778 16.2014 26.9036 15.9352 26.9036C15.667 26.9036 15.4248 26.778 15.2502 26.577C15.0749 26.3767 14.9664 26.0979 14.9664 25.7908V20.0299H13.0511C12.4774 20.0299 12.0081 19.4901 12.0081 18.8307C12.0078 18.1709 12.4771 17.6317 13.0511 17.6317ZM5.19571 12.3664H7.06732V5.32336C7.06732 5.01503 7.17633 4.7372 7.35193 4.53563C7.5265 4.33406 7.76898 4.21024 8.03616 4.21024C8.30309 4.21024 8.5453 4.33406 8.72065 4.53563C8.896 4.7372 9.00371 5.01503 9.00371 5.32336V12.3664H10.9627C11.5364 12.3664 12.0057 12.9059 12.0057 13.5653C12.0057 14.2247 11.5364 14.7643 10.9627 14.7643H9.00371V25.7911C9.00371 26.0982 8.89574 26.377 8.72065 26.5773C8.5453 26.7783 8.30309 26.9039 8.03616 26.9039C7.76871 26.9039 7.5265 26.7783 7.35193 26.5773C7.17659 26.377 7.06732 26.0982 7.06732 25.7911V14.7643H5.19571C4.62205 14.7643 4.15272 14.2247 4.15272 13.5653C4.15272 12.9056 4.62205 12.3664 5.19571 12.3664ZM29.3776 1.48964H2.59122C2.23506 1.48964 1.91193 1.65712 1.67805 1.92718C1.44312 2.19634 1.29743 2.56867 1.29743 2.976V28.4567C1.29743 28.8637 1.44312 29.2363 1.67805 29.5052C1.91193 29.7761 2.23532 29.9421 2.59122 29.9421H29.3776C29.7337 29.9421 30.0568 29.7761 30.2907 29.5052C30.5254 29.2366 30.6713 28.8637 30.6713 28.4567V2.976C30.6713 2.56837 30.5254 2.19634 30.2907 1.92718C30.0568 1.65712 29.7337 1.48964 29.3776 1.48964Z" fill="#0D139D"/>
</g>
<defs>
<clipPath id="clip0_98_565">
<rect width="32" height="32" fill="white"/>
</clipPath>
</defs>
</svg>
