<svg width="22" height="24" viewBox="0 0 22 24" fill="none" xmlns="http://www.w3.org/2000/svg">
<g id="Group">
<path id="Vector" d="M14.1763 20.8236C14.1062 21.1941 13.983 21.534 13.8049 21.8453C13.6211 22.1642 13.3805 22.4526 13.0849 22.7047C12.7875 22.9568 12.4653 23.1477 12.1148 23.2757C11.7643 23.4036 11.3929 23.4667 11.0007 23.4667C10.6066 23.4667 10.2352 23.4017 9.88659 23.2757C9.53795 23.1477 9.21395 22.9587 8.91837 22.7047C8.62089 22.4507 8.38215 22.1642 8.19836 21.8453C8.01457 21.5264 7.88951 21.175 7.8213 20.7892C7.7872 20.6021 7.91225 20.4226 8.09794 20.3882C8.10362 20.3882 8.15857 20.3825 8.15857 20.3825H13.8466C14.0361 20.3825 14.1915 20.5372 14.1915 20.73C14.1896 20.7625 14.1839 20.7931 14.1763 20.8236ZM3.82905 0.0477454C4.17579 -0.0916643 4.56801 0.0802107 4.70633 0.42969C4.84464 0.779169 4.67412 1.17448 4.32737 1.31389C3.57705 1.61563 2.94799 2.03386 2.44588 2.57622C1.94567 3.11858 1.56861 3.7908 1.32229 4.59861C1.2124 4.95764 0.833447 5.16007 0.477233 5.04931C0.121019 4.93854 -0.0798249 4.5566 0.0300708 4.19757C0.338916 3.18542 0.816394 2.3375 1.45493 1.64618C2.09346 0.956773 2.88736 0.42587 3.82905 0.0477454ZM17.6721 1.31389C17.3254 1.17448 17.1549 0.779169 17.2932 0.42969C17.4315 0.0802107 17.8237 -0.0916643 18.1705 0.0477454C19.1121 0.42587 19.906 0.956773 20.5446 1.64809C21.1831 2.34132 21.6625 3.18924 21.9694 4.19948C22.0793 4.55851 21.8785 4.94045 21.5223 5.05122C21.1661 5.16198 20.7871 4.95955 20.6772 4.60052C20.4309 3.7908 20.0538 3.11858 19.5536 2.57813C19.0515 2.03386 18.4225 1.61563 17.6721 1.31389ZM12.8121 2.01285C13.0906 2.08542 13.3616 2.17518 13.6249 2.28021C14.0115 2.4349 14.3828 2.62014 14.7391 2.83594C14.7523 2.84549 14.7675 2.85313 14.7807 2.86268C15.1218 3.07466 15.4401 3.30764 15.7319 3.55972C16.0389 3.82518 16.3231 4.11736 16.5883 4.4382L16.5902 4.44011C16.8498 4.75521 17.081 5.09323 17.2856 5.45035C17.4902 5.80938 17.6664 6.18368 17.8123 6.56945C17.962 6.96858 18.0738 7.37535 18.1496 7.79358C18.2235 8.21372 18.2614 8.6434 18.2614 9.08455C18.2614 9.95538 18.2614 10.4271 18.2614 10.4844C18.2633 10.9313 18.2652 11.3686 18.269 11.7944V11.7983C18.2709 12.184 18.2955 12.5717 18.3429 12.9594C18.3902 13.3432 18.4585 13.7137 18.5475 14.0708C18.6366 14.4222 18.7578 14.7622 18.9075 15.0868C19.0629 15.421 19.2524 15.7495 19.474 16.0684H19.4759C19.6957 16.3816 19.9705 16.6929 20.3002 16.9984C20.6412 17.3135 21.0353 17.6248 21.4863 17.9266C21.744 18.1003 21.8141 18.4536 21.6397 18.7134C21.5317 18.8757 21.3536 18.9655 21.1717 18.9655V18.9674H16.0843H11.0007H5.91328H0.827763C0.515128 18.9674 0.263126 18.7134 0.263126 18.3983C0.263126 18.192 0.373021 18.0106 0.53597 17.9113C0.992606 17.6 1.38482 17.2906 1.71261 16.9851C2.03851 16.6814 2.31136 16.3701 2.53115 16.0493C2.53683 16.0398 2.54441 16.0302 2.55199 16.0226C2.7642 15.7094 2.9461 15.3905 3.09578 15.0658C3.24926 14.7354 3.37242 14.3955 3.46337 14.046C3.46526 14.0384 3.46716 14.0307 3.46905 14.025C3.55621 13.6851 3.62253 13.326 3.668 12.9498C3.71347 12.5717 3.73811 12.1802 3.73811 11.7773V9.08455C3.73811 8.65104 3.776 8.22136 3.85369 7.79167C3.93137 7.36389 4.04316 6.9533 4.19285 6.56181C4.34064 6.17032 4.51874 5.7941 4.72527 5.43507C4.92991 5.07795 5.16486 4.73993 5.42823 4.4191L5.43202 4.41528C5.69349 4.10018 5.9815 3.80608 6.29413 3.53681C6.60298 3.27136 6.93645 3.02882 7.29456 2.81302C7.65646 2.59531 8.03162 2.41198 8.41815 2.26302C8.68721 2.1599 8.96574 2.07396 9.24995 2.0033C9.34658 1.66146 9.51332 1.38455 9.75016 1.17257C10.0761 0.880384 10.5043 0.735245 11.0367 0.740975C11.5634 0.744794 11.9898 0.891843 12.3119 1.18403C12.5468 1.39792 12.7155 1.67292 12.8121 2.01285ZM13.2157 3.33629C12.903 3.21215 12.5847 3.11476 12.2607 3.0441C12.0106 3.01163 11.806 2.81302 11.7738 2.54948C11.7434 2.30122 11.6733 2.12743 11.5615 2.02813C11.4498 1.92882 11.2717 1.87726 11.0272 1.87535C10.7828 1.87344 10.6066 1.92118 10.4986 2.01858C10.3887 2.11788 10.3186 2.29358 10.2902 2.54566C10.2636 2.78629 10.0836 2.99254 9.83353 3.03837C9.483 3.10521 9.14384 3.2007 8.81605 3.32674C8.48826 3.45087 8.17562 3.60556 7.87246 3.78698C7.5712 3.96841 7.28888 4.17275 7.0274 4.4C6.76592 4.62535 6.5215 4.87361 6.29792 5.14479C6.07813 5.41216 5.88107 5.70052 5.70486 6.00608C5.53244 6.30782 5.38086 6.62865 5.25202 6.96858C5.12317 7.3066 5.02843 7.65035 4.96591 7.9941C4.90338 8.33976 4.87306 8.70452 4.87306 9.08646V11.7792C4.87306 12.226 4.84654 12.6615 4.79538 13.0892C4.74422 13.4998 4.66843 13.9085 4.56422 14.3115C4.56232 14.321 4.56043 14.3286 4.55853 14.3382C4.45053 14.7488 4.30464 15.1517 4.12085 15.549C3.94274 15.9328 3.73053 16.3052 3.4861 16.6661C3.47852 16.6776 3.47095 16.6891 3.46337 16.7005C3.20568 17.0748 2.87789 17.4472 2.48188 17.8177L2.46673 17.8311H5.91897H11.0064H16.0862H19.5328C19.1463 17.4721 18.8204 17.1016 18.5551 16.7234V16.7215C18.2955 16.3472 18.0738 15.9634 17.89 15.57C17.7024 15.1689 17.5584 14.7622 17.4542 14.3535V14.3516C17.3519 13.9448 17.2742 13.5266 17.2231 13.0988C17.1738 12.6901 17.1473 12.2585 17.1454 11.8059V11.804C17.1416 11.3819 17.1397 10.9427 17.1378 10.4844C17.134 9.63646 17.134 9.17431 17.134 9.08455C17.134 8.71025 17.1037 8.34549 17.0393 7.99219C16.9768 7.6408 16.8839 7.30087 16.7608 6.9724V6.97049C16.6338 6.63247 16.4841 6.31354 16.3136 6.01372C16.1431 5.71389 15.946 5.42934 15.7243 5.15816C15.5045 4.89271 15.2639 4.64636 15.0024 4.4191C14.7485 4.19948 14.4795 4.00278 14.1972 3.82518C14.1839 3.81945 14.1725 3.81181 14.1593 3.80417C13.8523 3.62275 13.5378 3.46615 13.2157 3.33629Z" fill="#0D139D"/>
</g>
</svg>
