<svg width="1173" height="32" viewBox="0 0 1173 32" fill="none" xmlns="http://www.w3.org/2000/svg">
<path d="M1164.35 8.52167L1166 10.1667L1159 17.1667L1152 10.1667L1153.64 8.52167L1159 13.865L1164.35 8.52167ZM1164.35 15.5217L1166 17.1667L1159 24.1667L1152 17.1667L1153.64 15.5217L1159 20.865L1164.35 15.5217Z" fill="#585B58"/>
<path d="M43.571 16.646C44.039 16.646 44.45 16.586 44.804 16.466C45.164 16.346 45.461 16.178 45.695 15.962C45.935 15.74 46.115 15.473 46.235 15.161C46.355 14.849 46.415 14.501 46.415 14.117C46.415 13.739 46.355 13.4 46.235 13.1C46.121 12.8 45.947 12.545 45.713 12.335C45.479 12.125 45.182 11.966 44.822 11.858C44.468 11.744 44.051 11.687 43.571 11.687H41.645V16.646H43.571ZM43.571 10.04C44.417 10.04 45.149 10.139 45.767 10.337C46.391 10.535 46.904 10.814 47.306 11.174C47.714 11.528 48.017 11.957 48.215 12.461C48.413 12.959 48.512 13.511 48.512 14.117C48.512 14.735 48.407 15.302 48.197 15.818C47.987 16.328 47.675 16.769 47.261 17.141C46.847 17.507 46.331 17.795 45.713 18.005C45.101 18.209 44.387 18.311 43.571 18.311H41.645V23H39.539V10.04H43.571ZM55.7293 17.375C55.7293 17.051 55.6813 16.751 55.5853 16.475C55.4953 16.193 55.3603 15.95 55.1803 15.746C55.0003 15.536 54.7753 15.374 54.5053 15.26C54.2413 15.14 53.9353 15.08 53.5873 15.08C52.8853 15.08 52.3333 15.281 51.9313 15.683C51.5293 16.085 51.2743 16.649 51.1663 17.375H55.7293ZM51.1123 18.563C51.1363 19.085 51.2173 19.538 51.3553 19.922C51.4933 20.3 51.6763 20.615 51.9043 20.867C52.1383 21.119 52.4143 21.308 52.7323 21.434C53.0563 21.554 53.4163 21.614 53.8123 21.614C54.1903 21.614 54.5173 21.572 54.7933 21.488C55.0693 21.398 55.3093 21.302 55.5133 21.2C55.7173 21.092 55.8913 20.996 56.0353 20.912C56.1793 20.822 56.3113 20.777 56.4313 20.777C56.5873 20.777 56.7073 20.837 56.7913 20.957L57.3403 21.668C57.1123 21.938 56.8543 22.166 56.5663 22.352C56.2783 22.538 55.9723 22.691 55.6483 22.811C55.3243 22.925 54.9913 23.006 54.6493 23.054C54.3073 23.108 53.9743 23.135 53.6503 23.135C53.0143 23.135 52.4233 23.03 51.8773 22.82C51.3373 22.604 50.8663 22.289 50.4643 21.875C50.0683 21.461 49.7563 20.948 49.5283 20.336C49.3063 19.724 49.1953 19.019 49.1953 18.221C49.1953 17.585 49.2943 16.991 49.4923 16.439C49.6963 15.887 49.9843 15.407 50.3563 14.999C50.7343 14.591 51.1903 14.27 51.7243 14.036C52.2643 13.796 52.8733 13.676 53.5513 13.676C54.1153 13.676 54.6373 13.769 55.1173 13.955C55.5973 14.135 56.0113 14.402 56.3593 14.756C56.7073 15.11 56.9773 15.545 57.1693 16.061C57.3673 16.571 57.4663 17.153 57.4663 17.807C57.4663 18.107 57.4333 18.308 57.3673 18.41C57.3013 18.512 57.1813 18.563 57.0073 18.563H51.1123ZM63.2398 13.676C63.9178 13.676 64.5298 13.787 65.0758 14.009C65.6278 14.231 66.0958 14.546 66.4798 14.954C66.8698 15.362 67.1698 15.857 67.3798 16.439C67.5898 17.021 67.6948 17.675 67.6948 18.401C67.6948 19.127 67.5898 19.781 67.3798 20.363C67.1698 20.945 66.8698 21.443 66.4798 21.857C66.0958 22.265 65.6278 22.58 65.0758 22.802C64.5298 23.024 63.9178 23.135 63.2398 23.135C62.5558 23.135 61.9378 23.024 61.3858 22.802C60.8398 22.58 60.3718 22.265 59.9818 21.857C59.5918 21.443 59.2918 20.945 59.0818 20.363C58.8718 19.781 58.7668 19.127 58.7668 18.401C58.7668 17.675 58.8718 17.021 59.0818 16.439C59.2918 15.857 59.5918 15.362 59.9818 14.954C60.3718 14.546 60.8398 14.231 61.3858 14.009C61.9378 13.787 62.5558 13.676 63.2398 13.676ZM63.2398 21.623C64.0678 21.623 64.6828 21.347 65.0848 20.795C65.4928 20.237 65.6968 19.442 65.6968 18.41C65.6968 17.378 65.4928 16.583 65.0848 16.025C64.6828 15.461 64.0678 15.179 63.2398 15.179C62.3998 15.179 61.7758 15.461 61.3678 16.025C60.9598 16.583 60.7558 17.378 60.7558 18.41C60.7558 19.442 60.9598 20.237 61.3678 20.795C61.7758 21.347 62.3998 21.623 63.2398 21.623ZM71.489 20.696C71.759 21.044 72.053 21.29 72.371 21.434C72.695 21.572 73.052 21.641 73.442 21.641C74.198 21.641 74.786 21.365 75.206 20.813C75.632 20.261 75.845 19.439 75.845 18.347C75.845 17.783 75.797 17.303 75.701 16.907C75.605 16.505 75.467 16.178 75.287 15.926C75.107 15.674 74.888 15.491 74.63 15.377C74.372 15.263 74.081 15.206 73.757 15.206C73.265 15.206 72.839 15.314 72.479 15.53C72.125 15.74 71.795 16.043 71.489 16.439V20.696ZM71.39 15.152C71.774 14.702 72.209 14.339 72.695 14.063C73.187 13.787 73.757 13.649 74.405 13.649C74.921 13.649 75.389 13.754 75.809 13.964C76.229 14.168 76.589 14.468 76.889 14.864C77.189 15.26 77.42 15.752 77.582 16.34C77.75 16.922 77.834 17.591 77.834 18.347C77.834 19.025 77.741 19.658 77.555 20.246C77.375 20.828 77.114 21.335 76.772 21.767C76.43 22.193 76.016 22.529 75.53 22.775C75.044 23.015 74.495 23.135 73.883 23.135C73.343 23.135 72.884 23.048 72.506 22.874C72.134 22.7 71.795 22.46 71.489 22.154V26.051H69.554V13.82H70.724C70.988 13.82 71.156 13.943 71.228 14.189L71.39 15.152ZM81.6852 9.68V23H79.7502V9.68H81.6852ZM90.0945 17.375C90.0945 17.051 90.0465 16.751 89.9505 16.475C89.8605 16.193 89.7255 15.95 89.5455 15.746C89.3655 15.536 89.1405 15.374 88.8705 15.26C88.6065 15.14 88.3005 15.08 87.9525 15.08C87.2505 15.08 86.6985 15.281 86.2965 15.683C85.8945 16.085 85.6395 16.649 85.5315 17.375H90.0945ZM85.4775 18.563C85.5015 19.085 85.5825 19.538 85.7205 19.922C85.8585 20.3 86.0415 20.615 86.2695 20.867C86.5035 21.119 86.7795 21.308 87.0975 21.434C87.4215 21.554 87.7815 21.614 88.1775 21.614C88.5555 21.614 88.8825 21.572 89.1585 21.488C89.4345 21.398 89.6745 21.302 89.8785 21.2C90.0825 21.092 90.2565 20.996 90.4005 20.912C90.5445 20.822 90.6765 20.777 90.7965 20.777C90.9525 20.777 91.0725 20.837 91.1565 20.957L91.7055 21.668C91.4775 21.938 91.2195 22.166 90.9315 22.352C90.6435 22.538 90.3375 22.691 90.0135 22.811C89.6895 22.925 89.3565 23.006 89.0145 23.054C88.6725 23.108 88.3395 23.135 88.0155 23.135C87.3795 23.135 86.7885 23.03 86.2425 22.82C85.7025 22.604 85.2315 22.289 84.8295 21.875C84.4335 21.461 84.1215 20.948 83.8935 20.336C83.6715 19.724 83.5605 19.019 83.5605 18.221C83.5605 17.585 83.6595 16.991 83.8575 16.439C84.0615 15.887 84.3495 15.407 84.7215 14.999C85.0995 14.591 85.5555 14.27 86.0895 14.036C86.6295 13.796 87.2385 13.676 87.9165 13.676C88.4805 13.676 89.0025 13.769 89.4825 13.955C89.9625 14.135 90.3765 14.402 90.7245 14.756C91.0725 15.11 91.3425 15.545 91.5345 16.061C91.7325 16.571 91.8315 17.153 91.8315 17.807C91.8315 18.107 91.7985 18.308 91.7325 18.41C91.6665 18.512 91.5465 18.563 91.3725 18.563H85.4775Z" fill="#0D139D"/>
<path d="M15.9997 5.33334C17.4142 5.33334 18.7707 5.89525 19.7709 6.89544C20.7711 7.89563 21.333 9.25219 21.333 10.6667C21.333 12.0812 20.7711 13.4377 19.7709 14.4379C18.7707 15.4381 17.4142 16 15.9997 16C14.5852 16 13.2286 15.4381 12.2284 14.4379C11.2282 13.4377 10.6663 12.0812 10.6663 10.6667C10.6663 9.25219 11.2282 7.89563 12.2284 6.89544C13.2286 5.89525 14.5852 5.33334 15.9997 5.33334ZM15.9997 8.00001C15.2924 8.00001 14.6142 8.28096 14.1141 8.78106C13.614 9.28116 13.333 9.95943 13.333 10.6667C13.333 11.3739 13.614 12.0522 14.1141 12.5523C14.6142 13.0524 15.2924 13.3333 15.9997 13.3333C16.7069 13.3333 17.3852 13.0524 17.8853 12.5523C18.3854 12.0522 18.6663 11.3739 18.6663 10.6667C18.6663 9.95943 18.3854 9.28116 17.8853 8.78106C17.3852 8.28096 16.7069 8.00001 15.9997 8.00001ZM15.9997 17.3333C19.5597 17.3333 26.6663 19.1067 26.6663 22.6667V26.6667H5.33301V22.6667C5.33301 19.1067 12.4397 17.3333 15.9997 17.3333ZM15.9997 19.8667C12.0397 19.8667 7.86634 21.8133 7.86634 22.6667V24.1333H24.133V22.6667C24.133 21.8133 19.9597 19.8667 15.9997 19.8667Z" fill="#0D139D"/>
</svg>
