<svg width="32" height="32" viewBox="0 0 32 32" fill="none" xmlns="http://www.w3.org/2000/svg">
<g clip-path="url(#clip0_98_640)">
<path d="M18.39 1.08101C18.39 0.485854 18.9713 0 19.6938 0C20.4163 0 20.9981 0.482695 20.9981 1.08101V5.81003C20.9981 6.40518 20.4169 6.89103 19.6938 6.89103C18.9706 6.89103 18.39 6.40771 18.39 5.81003V1.08101ZM3.55063 15.3072C3.47688 15.3072 3.41062 14.9787 3.41062 14.5762C3.41062 14.1738 3.46938 13.8478 3.55063 13.8478H7.10938C7.18375 13.8478 7.25 14.1763 7.25 14.5762C7.25 14.9762 7.19125 15.3072 7.10938 15.3072H3.55063ZM9.22437 15.3072C9.15 15.3072 9.08438 14.9787 9.08438 14.5762C9.08438 14.1738 9.1425 13.8478 9.22437 13.8478H12.7831C12.8569 13.8478 12.9231 14.1763 12.9231 14.5762C12.9231 14.9762 12.8644 15.3072 12.7831 15.3072H9.22437ZM14.8975 15.3072C14.8238 15.3072 14.7575 14.9787 14.7575 14.5762C14.7575 14.1738 14.8156 13.8478 14.8975 13.8478H18.4562C18.53 13.8478 18.5963 14.1732 18.5963 14.5737C18.24 14.798 17.8969 15.0431 17.5688 15.3072H14.8975ZM3.55875 19.4923C3.485 19.4923 3.41875 19.1637 3.41875 18.7613C3.41875 18.3588 3.47687 18.0297 3.55875 18.0297H7.1175C7.19125 18.0297 7.2575 18.3582 7.2575 18.7613C7.2575 19.1644 7.19937 19.4923 7.1175 19.4923H3.55875ZM9.23188 19.4923C9.15813 19.4923 9.09188 19.1637 9.09188 18.7613C9.09188 18.3588 9.15 18.0297 9.23188 18.0297H12.7906C12.8644 18.0297 12.9306 18.3582 12.9306 18.7613C12.9306 19.1644 12.8725 19.4923 12.7906 19.4923H9.23188ZM3.56625 23.6798C3.4925 23.6798 3.42625 23.3513 3.42625 22.9476C3.42625 22.5439 3.485 22.2172 3.56625 22.2172H7.125C7.19938 22.2172 7.26562 22.5458 7.26562 22.9476C7.26562 23.3494 7.20687 23.6798 7.125 23.6798H3.56625ZM9.24 23.6798C9.16562 23.6798 9.09937 23.3513 9.09937 22.9476C9.09937 22.5439 9.15812 22.2172 9.24 22.2172H12.7987C12.8725 22.2172 12.9388 22.5458 12.9388 22.9476C12.9388 23.3494 12.88 23.6798 12.7987 23.6798H9.24ZM6.67688 1.08101C6.67688 0.485854 7.2575 0 7.98063 0C8.70375 0 9.28438 0.482695 9.28438 1.08101V5.81003C9.28438 6.40518 8.70187 6.89103 7.98063 6.89103C7.25938 6.89103 6.67688 6.40771 6.67688 5.81003V1.08101ZM1.43625 10.3388H26.2731V4.89392C26.2731 4.70817 26.1994 4.54453 26.0806 4.42449C25.9619 4.30445 25.7925 4.2299 25.6156 4.2299H23.2344C22.835 4.2299 22.5112 3.90136 22.5112 3.4989C22.5112 3.09645 22.835 2.76728 23.2344 2.76728H25.6156C26.1994 2.76728 26.7219 3.00547 27.1044 3.3915C27.4875 3.77942 27.7225 4.30761 27.7225 4.89708V13.5407C27.2475 13.3752 26.7587 13.2419 26.2569 13.1433V11.7925H1.43625V25.8924C1.43625 26.0781 1.51063 26.2411 1.62875 26.3612C1.7475 26.4812 1.91688 26.5558 2.09313 26.5558H13.8975C14.0312 27.0625 14.2006 27.5566 14.4044 28.0317H2.10687C1.52562 28.0317 1.00063 27.7947 0.618125 27.4068C0.234375 27.0233 0 26.4951 0 25.905V4.8996C0 4.31266 0.234375 3.78132 0.618125 3.39466C1.00063 3.00736 1.52312 2.76981 2.10687 2.76981H4.64875C5.0475 2.76981 5.3725 3.09834 5.3725 3.5008C5.3725 3.90326 5.0475 4.23306 4.64875 4.23306H2.10687C1.92188 4.23306 1.76063 4.30761 1.64188 4.42765C1.52313 4.54769 1.44875 4.71765 1.44875 4.89708V10.3407H1.43625V10.3388ZM11.37 4.2299C10.9719 4.2299 10.6469 3.90136 10.6469 3.4989C10.6469 3.09645 10.9719 2.76728 11.37 2.76728H16.2169C16.6163 2.76728 16.9412 3.09582 16.9412 3.4989C16.9412 3.90199 16.6163 4.2299 16.2169 4.2299H11.37ZM23.6138 15.0438C25.925 15.0438 28.0238 15.994 29.5413 17.5299C31.06 19.0614 32 21.1811 32 23.5225C32 25.864 31.0613 27.9837 29.5438 29.517L29.5012 29.5575C27.9869 31.0662 25.9075 32 23.6138 32C21.32 32 19.2038 31.0498 17.6863 29.517C16.1675 27.9805 15.2275 25.8595 15.2275 23.5225C15.2275 21.1855 16.1675 19.0614 17.6844 17.5274L17.7275 17.4876C19.2425 15.9776 21.3231 15.0438 23.6138 15.0438ZM28.535 18.5446C27.2794 17.274 25.5375 16.4862 23.6138 16.4862C21.69 16.4862 19.98 17.2601 18.7269 18.5092L18.6925 18.5471C17.4338 19.8195 16.6537 21.5797 16.6537 23.5225C16.6537 25.4653 17.4338 27.228 18.6906 28.4992C19.9481 29.7697 21.6906 30.5576 23.6138 30.5576C25.5369 30.5576 27.2463 29.7836 28.5019 28.5346L28.5356 28.4979C29.795 27.2249 30.5737 25.4653 30.5737 23.5225C30.5737 21.5797 29.7944 19.8195 28.535 18.5446ZM23.6138 29.4273C23.4044 29.4273 23.2069 29.3313 23.0763 29.1657C22.6963 28.6843 19.3631 24.3982 19.3631 22.2286C19.3631 19.8593 21.27 17.9324 23.6131 17.9324C25.9562 17.9324 27.8631 19.86 27.8631 22.2286C27.8631 24.3982 24.5306 28.6843 24.1506 29.1657C24.02 29.3313 23.8225 29.4273 23.6131 29.4273H23.6138ZM23.6138 19.3217C22.0281 19.3217 20.7388 20.6257 20.7388 22.228C20.7388 23.3361 22.3313 25.857 23.6138 27.5932C24.8962 25.857 26.4888 23.3361 26.4888 22.228C26.4888 20.6251 25.1987 19.3217 23.6138 19.3217Z" fill="#0D139D"/>
</g>
<defs>
<clipPath id="clip0_98_640">
<rect width="32" height="32" fill="white"/>
</clipPath>
</defs>
</svg>
