<svg width="14" height="15" viewBox="0 0 14 15" fill="none" xmlns="http://www.w3.org/2000/svg">
<g id="icon/lock" clip-path="url(#clip0_89_698)">
<path id="Vector" d="M9.69785 7.02217C9.7274 6.84483 9.74711 6.65764 9.74711 6.47044V4.0468C9.74711 2.31281 8.32839 0.894089 6.5944 0.894089C4.86041 0.894089 3.44169 2.31281 3.44169 4.0468V6.46059C3.44169 6.57882 3.44169 6.69704 3.46139 6.80542M11.4121 14.1059H2.25942C1.51065 14.1059 0.909668 13.5049 0.909668 12.7562V8.16503C0.909668 7.41626 1.51065 6.81527 2.25942 6.81527H11.4121C12.1609 6.81527 12.7619 7.41626 12.7619 8.16503V12.7562C12.7619 13.5049 12.1609 14.1059 11.4121 14.1059V14.1059Z" stroke="black" stroke-linejoin="round"/>
</g>
<defs>
<clipPath id="clip0_89_698">
<rect width="12.6404" height="14" fill="white" transform="translate(0.515625 0.5)"/>
</clipPath>
</defs>
</svg>
