<svg width="32" height="32" viewBox="0 0 32 32" fill="none" xmlns="http://www.w3.org/2000/svg">
<path d="M15.9997 5.33335C18.933 5.33335 21.333 7.73335 21.333 10.6667C21.333 13.4667 18.533 18 15.9997 21.2C13.4663 17.8667 10.6663 13.4667 10.6663 10.6667C10.6663 7.73335 13.0663 5.33335 15.9997 5.33335ZM15.9997 2.66669C11.5997 2.66669 7.99967 6.26669 7.99967 10.6667C7.99967 16.6667 15.9997 25.3334 15.9997 25.3334C15.9997 25.3334 23.9997 16.5334 23.9997 10.6667C23.9997 6.26669 20.3997 2.66669 15.9997 2.66669ZM15.9997 8.00002C14.533 8.00002 13.333 9.20002 13.333 10.6667C13.333 12.1334 14.533 13.3334 15.9997 13.3334C17.4663 13.3334 18.6663 12.1334 18.6663 10.6667C18.6663 9.20002 17.4663 8.00002 15.9997 8.00002ZM26.6663 25.3334C26.6663 28.2667 21.8663 30.6667 15.9997 30.6667C10.133 30.6667 5.33301 28.2667 5.33301 25.3334C5.33301 23.6 6.93301 22.1334 9.46634 21.0667L10.2663 22.2667C8.93301 22.9334 7.99967 23.7334 7.99967 24.6667C7.99967 26.5334 11.5997 28 15.9997 28C20.3997 28 23.9997 26.5334 23.9997 24.6667C23.9997 23.7334 23.0663 22.9334 21.5997 22.2667L22.3997 21.0667C25.0663 22.1334 26.6663 23.6 26.6663 25.3334Z" fill="#0D139D"/>
</svg>
