<svg width="22" height="20" viewBox="0 0 22 20" fill="none" xmlns="http://www.w3.org/2000/svg">
<g id="view pwd">
<path id="Vector" d="M11 15.75C12.1833 15.75 13.1875 15.3375 14.0125 14.5125C14.8375 13.6875 15.25 12.6833 15.25 11.5C15.25 10.3167 14.8375 9.3125 14.0125 8.4875C13.1875 7.6625 12.1833 7.25 11 7.25C9.81667 7.25 8.8125 7.6625 7.9875 8.4875C7.1625 9.3125 6.75 10.3167 6.75 11.5C6.75 12.6833 7.1625 13.6875 7.9875 14.5125C8.8125 15.3375 9.81667 15.75 11 15.75ZM11 14.3C10.2167 14.3 9.55417 14.0292 9.0125 13.4875C8.47083 12.9458 8.2 12.2833 8.2 11.5C8.2 10.7167 8.47083 10.0542 9.0125 9.5125C9.55417 8.97083 10.2167 8.7 11 8.7C11.7833 8.7 12.4458 8.97083 12.9875 9.5125C13.5292 10.0542 13.8 10.7167 13.8 11.5C13.8 12.2833 13.5292 12.9458 12.9875 13.4875C12.4458 14.0292 11.7833 14.3 11 14.3ZM11 19C8.56667 19 6.36667 18.3083 4.4 16.925C2.43333 15.5417 0.966667 13.7333 0 11.5C0.966667 9.26667 2.43333 7.45833 4.4 6.075C6.36667 4.69167 8.56667 4 11 4C13.4333 4 15.6333 4.69167 17.6 6.075C19.5667 7.45833 21.0333 9.26667 22 11.5C21.0333 13.7333 19.5667 15.5417 17.6 16.925C15.6333 18.3083 13.4333 19 11 19ZM11 17.5C13.0167 17.5 14.8708 16.9542 16.5625 15.8625C18.2542 14.7708 19.5417 13.3167 20.425 11.5C19.5417 9.68333 18.2542 8.22917 16.5625 7.1375C14.8708 6.04583 13.0167 5.5 11 5.5C8.98333 5.5 7.12917 6.04583 5.4375 7.1375C3.74583 8.22917 2.45 9.68333 1.55 11.5C2.45 13.3167 3.74583 14.7708 5.4375 15.8625C7.12917 16.9542 8.98333 17.5 11 17.5Z" fill="#9F9F9B"/>
<line id="Line 2" x1="1.35355" y1="0.646447" x2="20.3536" y2="19.6464" stroke="#9F9F9B"/>
</g>
</svg>
