<svg width="32" height="32" viewBox="0 0 32 32" fill="none" xmlns="http://www.w3.org/2000/svg">
<g clip-path="url(#clip0_98_643)">
<path d="M21.2526 1.23167C21.2526 0.552038 21.9245 0 22.7552 0C23.5859 0 24.2578 0.552038 24.2578 1.23167V6.62706C24.2578 7.3067 23.5859 7.85874 22.7552 7.85874C21.9245 7.85874 21.2526 7.3067 21.2526 6.62706V1.23167ZM4.1276 17.4699C4.03906 17.4699 3.96875 17.0976 3.96875 16.6367C3.96875 16.1758 4.03906 15.8034 4.1276 15.8034H8.23958C8.32813 15.8034 8.39844 16.1758 8.39844 16.6367C8.39844 17.0976 8.32813 17.4699 8.23958 17.4699H4.1276ZM10.6719 17.4699C10.5833 17.4699 10.513 17.0976 10.513 16.6367C10.513 16.1758 10.5833 15.8034 10.6719 15.8034H27.2839C27.3724 15.8034 27.4427 16.1758 27.4427 16.6367C27.4427 17.0976 27.3724 17.4699 27.2839 17.4699H10.6719ZM10.6719 22.2508C10.5833 22.2508 10.513 21.8784 10.513 21.4175C10.513 20.9566 10.5833 20.5843 10.6719 20.5843H22.5964C22.6849 20.5843 22.7552 20.9566 22.7552 21.4175C22.7552 21.8784 22.6849 22.2508 22.5964 22.2508H10.6719ZM10.6719 27.0317C10.5833 27.0317 10.513 26.6593 10.513 26.1984C10.513 25.7375 10.5833 25.3651 10.6719 25.3651H14.7839C14.8724 25.3651 14.9427 25.7375 14.9427 26.1984C14.9427 26.6593 14.8724 27.0317 14.7839 27.0317H10.6719ZM7.71094 1.23167C7.71094 0.552038 8.38281 0 9.21354 0C10.0443 0 10.7161 0.552038 10.7161 1.23167V6.62706C10.7161 7.3067 10.0443 7.85874 9.21354 7.85874C8.38281 7.85874 7.71094 7.3067 7.71094 6.62706V1.23167ZM1.66667 11.8011H30.3307V5.59069C30.3307 5.38237 30.2448 5.19229 30.1068 5.05167C29.9688 4.91366 29.7786 4.82773 29.5677 4.82773H26.8229C26.362 4.82773 25.9896 4.45537 25.9896 3.99447C25.9896 3.53357 26.362 3.1612 26.8229 3.1612H29.5703C30.2396 3.1612 30.8464 3.43462 31.2865 3.87468C31.7266 4.31475 32 4.92147 32 5.59069V29.5705C32 30.2397 31.7266 30.8464 31.2865 31.2865C30.8464 31.7266 30.2396 32 29.5703 32H2.42969C1.76042 32 1.15365 31.7266 0.713542 31.2865C0.273438 30.8438 0 30.2371 0 29.5679V5.59069C0 4.92147 0.273438 4.31475 0.713542 3.87468C1.15365 3.43462 1.76042 3.1612 2.42969 3.1612H5.36458C5.82552 3.1612 6.19792 3.53357 6.19792 3.99447C6.19792 4.45537 5.82552 4.82773 5.36458 4.82773H2.42969C2.22135 4.82773 2.03125 4.91366 1.89063 5.05167C1.7526 5.18968 1.66667 5.37977 1.66667 5.59069V11.8011ZM30.3333 13.4703H1.66667V29.5679C1.66667 29.7762 1.7526 29.9663 1.89063 30.1069C2.02865 30.2449 2.21875 30.3309 2.42969 30.3309H29.5703C29.7786 30.3309 29.9688 30.2449 30.1094 30.1069C30.2474 29.9689 30.3333 29.7788 30.3333 29.5679V13.4703ZM13.1328 4.82773C12.6719 4.82773 12.2995 4.45537 12.2995 3.99447C12.2995 3.53357 12.6719 3.1612 13.1328 3.1612H18.7292C19.1901 3.1612 19.5625 3.53357 19.5625 3.99447C19.5625 4.45537 19.1901 4.82773 18.7292 4.82773H13.1328Z" fill="#0D139D"/>
</g>
<defs>
<clipPath id="clip0_98_643">
<rect width="32" height="32" fill="white"/>
</clipPath>
</defs>
</svg>
