<svg width="32" height="32" viewBox="0 0 32 32" fill="none" xmlns="http://www.w3.org/2000/svg">
<g clip-path="url(#clip0_1180_1307)">
<path fill-rule="evenodd" clip-rule="evenodd" d="M20.7552 8.29948C20.5729 8.13021 20.3646 8.03906 20.1302 8.05208C19.8958 8.05208 19.6875 8.14323 19.5182 8.32552L18.1406 9.75521L22.0026 13.4896L23.3932 12.0339C23.5625 11.8646 23.6276 11.6432 23.6276 11.4089C23.6276 11.1745 23.5365 10.9531 23.3672 10.7969L20.7552 8.29948ZM3.25781 0H28.7396C29.6354 0 30.4505 0.367188 31.0417 0.955729C31.6328 1.54688 31.9974 2.36198 31.9974 3.25781V28.7396C31.9974 29.6354 31.6302 30.4505 31.0417 31.0417C30.4505 31.6328 29.6354 31.9974 28.7396 31.9974H3.25781C2.36198 31.9974 1.54688 31.6302 0.955729 31.0417C0.364583 30.4505 0 29.6354 0 28.7396V3.25781C0 2.36198 0.367188 1.54688 0.955729 0.955729C1.54688 0.367188 2.36198 0 3.25781 0ZM28.7422 1.40365H3.25781C2.7474 1.40365 2.28385 1.61198 1.94792 1.95052C1.61198 2.28646 1.40104 2.7526 1.40104 3.26042V28.7422C1.40104 29.2526 1.60938 29.7161 1.94792 30.0521C2.28385 30.388 2.75 30.599 3.25781 30.599H28.7396C29.25 30.599 29.7135 30.3906 30.0495 30.0521C30.3854 29.7161 30.5964 29.25 30.5964 28.7422V3.25781C30.5964 2.7474 30.388 2.28385 30.0495 1.94792C29.7135 1.61198 29.25 1.40365 28.7422 1.40365ZM13.5234 22.2943C13.0156 22.4635 12.4948 22.6198 11.9896 22.7891C11.4818 22.9583 10.974 23.1276 10.4557 23.2969C9.2474 23.6875 8.58333 23.9089 8.4401 23.9479C8.29688 23.987 8.38802 23.4271 8.6875 22.2578L9.65104 18.5781L9.72917 18.4948L13.5234 22.2943ZM11.1302 17.0339L17.0938 10.8411L20.9557 14.5599L14.9297 20.8307L11.1302 17.0339Z" fill="#0D139D"/>
</g>
<defs>
<clipPath id="clip0_1180_1307">
<rect width="32" height="32" fill="white"/>
</clipPath>
</defs>
</svg>
