<svg width="24" height="20" viewBox="0 0 24 20" fill="none" xmlns="http://www.w3.org/2000/svg">
<g clip-path="url(#clip0_476_336)">
<path d="M2.32641 0H18.1209C18.7603 0 19.3411 0.284174 19.7616 0.735628L19.8 0.781478C20.1994 1.23142 20.4464 1.84108 20.4464 2.50113V11.6718C20.0377 11.5499 19.62 11.4566 19.1953 11.3957V9.68408L17.4628 11.3272C16.4386 11.3947 15.4598 11.6511 14.5369 12.0593L12.6159 10.0786L11.3297 14.0434C11.3109 14.185 11.2552 14.3044 11.1773 14.3971L11.0977 14.4762C10.8577 14.6748 10.4906 14.6738 10.2567 14.385L6.59437 8.42848L1.25156 13.2443V17.2555C1.25156 17.5704 1.37438 17.8586 1.56891 18.0682C1.76531 18.2793 2.03531 18.4113 2.32641 18.4113H11.0156C11.5125 18.9081 12.045 19.3591 12.607 19.7561H2.32641C1.69031 19.7561 1.10672 19.4735 0.684375 19.019C0.264375 18.5675 0 17.9423 0 17.2555V2.50113C0 1.81287 0.262031 1.18658 0.682969 0.734116L0.726094 0.691792C1.14469 0.26402 1.70906 0 2.32641 0ZM18.158 14.7342C18.6108 14.7342 19.0209 14.9317 19.3177 15.2502C19.6144 15.5691 19.7977 16.0095 19.7977 16.4967C19.7977 16.9829 19.6144 17.4243 19.3177 17.7427C19.0209 18.0617 18.6117 18.2592 18.158 18.2592C17.7056 18.2592 17.2955 18.0617 16.9988 17.7427C16.8462 17.5793 16.7253 17.3851 16.6429 17.1713C16.5605 16.9574 16.5183 16.7282 16.5187 16.4967C16.5187 16.0105 16.702 15.5691 16.9988 15.2502C17.2955 14.9317 17.7056 14.7342 18.158 14.7342ZM12.4073 16.2397C13.7348 14.514 15.803 13.0408 17.9278 12.9954C20.1783 12.9465 22.432 14.4929 23.9119 16.2428C23.9646 16.3049 23.9956 16.3848 23.9996 16.4688C24.0036 16.5528 23.9804 16.6357 23.9339 16.7033C22.7002 18.5751 20.4891 19.9884 18.3398 20C16.147 20.0106 13.7513 18.5444 12.39 16.7129C12.2845 16.5698 12.2948 16.3682 12.4073 16.2397ZM13.3467 16.4896C14.5941 18.044 16.4081 19.1465 18.3295 19.1374C20.1778 19.1278 21.8494 18.0788 22.9744 16.5138C21.6506 15.0295 19.9092 13.8162 17.9517 13.8575C16.1208 13.8973 14.527 15.0496 13.3467 16.4896ZM1.25156 11.4571C2.63672 10.1149 4.85344 8.23802 6.25359 6.97335C6.48187 6.76072 6.82172 6.76525 7.04625 6.97133C7.09172 7.01214 7.125 7.06102 7.16297 7.10989L10.328 12.4261L11.5898 8.61289C11.6831 8.08032 12.2681 7.90346 12.623 8.25767L15.5662 11.2868L19.1953 7.65708V2.50113C19.1953 2.20184 19.0847 1.92271 18.9047 1.71462L18.8766 1.6864C18.6816 1.4773 18.4134 1.34529 18.1209 1.34529H2.32641C2.04328 1.34529 1.78547 1.46319 1.59469 1.65365L1.5675 1.68489C1.37297 1.89449 1.25156 2.18371 1.25156 2.50113V11.4571ZM12.5452 3.07704C13.0617 3.07704 13.5314 3.30327 13.8708 3.66806C14.2102 4.03285 14.4202 4.5362 14.4202 5.09296C14.4202 5.64821 14.2102 6.15307 13.8708 6.51786C13.5314 6.88265 13.0617 7.10838 12.5452 7.10838C12.0277 7.10838 11.5589 6.88265 11.2195 6.51786C10.8802 6.15307 10.6702 5.64821 10.6702 5.09296C10.6702 4.5362 10.8802 4.03285 11.2195 3.66806C11.5589 3.30327 12.0277 3.07704 12.5452 3.07704ZM13.1175 4.47776C13.0423 4.39708 12.953 4.33313 12.8548 4.28956C12.7566 4.24599 12.6514 4.22365 12.5452 4.22381C12.3216 4.22381 12.1191 4.32106 11.9733 4.47776C11.898 4.55846 11.8384 4.65437 11.7978 4.75995C11.7571 4.86553 11.7363 4.97871 11.7366 5.09296C11.7366 5.3333 11.827 5.55097 11.9733 5.70766C12.1191 5.86436 12.3216 5.96211 12.5452 5.96211C12.7688 5.96211 12.9712 5.86436 13.1175 5.70766C13.2633 5.55097 13.3538 5.3333 13.3538 5.09296C13.3538 4.85262 13.2633 4.63445 13.1175 4.47776Z" fill="#1E1E1C"/>
</g>
<defs>
<clipPath id="clip0_476_336">
<rect width="24" height="20" fill="white"/>
</clipPath>
</defs>
</svg>
